<svg width="256" height="256" viewBox="0 0 256 256" xmlns="http://www.w3.org/2000/svg">
<path d="M 90,71 L 89,72 L 85,72 L 84,73 L 82,73 L 81,74 L 80,74 L 79,75 L 78,75 L 76,77 L 75,77 L 72,80 L 72,81 L 70,83 L 70,84 L 68,86 L 68,87 L 67,88 L 67,89 L 66,90 L 66,91 L 65,92 L 65,93 L 64,94 L 64,96 L 63,97 L 63,99 L 62,100 L 62,101 L 61,102 L 61,104 L 60,105 L 60,108 L 59,109 L 59,111 L 58,112 L 58,115 L 57,116 L 57,118 L 56,119 L 56,123 L 55,124 L 55,128 L 54,129 L 54,133 L 53,134 L 53,141 L 52,142 L 52,157 L 53,158 L 53,161 L 54,162 L 54,164 L 56,166 L 56,167 L 59,170 L 60,170 L 61,171 L 63,171 L 64,172 L 66,172 L 67,173 L 73,173 L 74,172 L 76,172 L 77,171 L 78,171 L 83,166 L 83,165 L 89,159 L 89,158 L 94,153 L 95,153 L 96,154 L 104,154 L 105,153 L 106,153 L 107,152 L 108,152 L 109,151 L 109,150 L 111,148 L 111,146 L 113,144 L 154,144 L 161,151 L 161,152 L 165,156 L 165,157 L 169,161 L 169,162 L 172,165 L 172,166 L 177,171 L 179,171 L 180,172 L 182,172 L 183,173 L 188,173 L 189,172 L 192,172 L 193,171 L 194,171 L 195,170 L 196,170 L 199,167 L 199,166 L 201,164 L 201,162 L 202,161 L 202,159 L 203,158 L 203,140 L 202,139 L 202,133 L 201,132 L 201,127 L 200,126 L 200,123 L 199,122 L 199,119 L 198,118 L 198,115 L 197,114 L 197,111 L 196,110 L 196,108 L 195,107 L 195,105 L 194,104 L 194,102 L 193,101 L 193,99 L 192,98 L 192,97 L 191,96 L 191,94 L 190,93 L 190,92 L 189,91 L 189,90 L 188,89 L 188,88 L 187,87 L 187,86 L 186,85 L 186,84 L 183,81 L 183,80 L 181,78 L 180,78 L 177,75 L 176,75 L 175,74 L 174,74 L 173,73 L 171,73 L 170,72 L 166,72 L 165,71 L 157,71 L 156,72 L 154,72 L 153,73 L 151,73 L 150,74 L 149,74 L 148,75 L 107,75 L 106,74 L 105,74 L 104,73 L 103,73 L 102,72 L 99,72 L 98,71 Z" fill="black" stroke="#00f0ff" stroke-width="2"/>
<!-- All other <path> elements as supplied -->
</svg>
